PathFileType	4	(X/Y/Z)	C:\Users\Basilio\Documents\Thesis Gigler\squatting_fais\c3dfiles\075\SLS_front_pre3\markers_experimental.trc
DataRate	CameraRate	NumFrames	NumMarkers	Units	OrigDataRate	OrigDataStartFrame	OrigNumFrames
200.000000	200.000000	4	61	mm	200.000000	998	1331
Frame#	Time	FHD			LBHD			C7			T10			CLAV			LSHO			LUUPA			LMUPA			LDUPA			LLEP			LMEP			LRAD			LUL			LRFIN			RSHO			RUPA1			RMUPA			RDUPA			RLEP			RMEP			RRAD			RUL			RUFIN			RASI			USACR			LSACR			RSACR			LTHI1			LTHI2			LTHI3			LTHI4			LLFC			LMFC			LTIB1			LTIB2			LTIB3			LTIB4			LLMAL			LMMAL			LHEE			LMT1			LMT2			LMT5			RTHI			RTHI2			RTHI3			RTHI4			RLFC			RMFC			RTIB1			RTIB2			RTIB3			RTIB4			RLMAL			RMMAL			RHEE			RMT1			RMT2			RMT5			LASI			RBHD			
		X1	Y1	Z1	X2	Y2	Z2	X3	Y3	Z3	X4	Y4	Z4	X5	Y5	Z5	X6	Y6	Z6	X7	Y7	Z7	X8	Y8	Z8	X9	Y9	Z9	X10	Y10	Z10	X11	Y11	Z11	X12	Y12	Z12	X13	Y13	Z13	X14	Y14	Z14	X15	Y15	Z15	X16	Y16	Z16	X17	Y17	Z17	X18	Y18	Z18	X19	Y19	Z19	X20	Y20	Z20	X21	Y21	Z21	X22	Y22	Z22	X23	Y23	Z23	X24	Y24	Z24	X25	Y25	Z25	X26	Y26	Z26	X27	Y27	Z27	X28	Y28	Z28	X29	Y29	Z29	X30	Y30	Z30	X31	Y31	Z31	X32	Y32	Z32	X33	Y33	Z33	X34	Y34	Z34	X35	Y35	Z35	X36	Y36	Z36	X37	Y37	Z37	X38	Y38	Z38	X39	Y39	Z39	X40	Y40	Z40	X41	Y41	Z41	X42	Y42	Z42	X43	Y43	Z43	X44	Y44	Z44	X45	Y45	Z45	X46	Y46	Z46	X47	Y47	Z47	X48	Y48	Z48	X49	Y49	Z49	X50	Y50	Z50	X51	Y51	Z51	X52	Y52	Z52	X53	Y53	Z53	X54	Y54	Z54	X55	Y55	Z55	X56	Y56	Z56	X57	Y57	Z57	X58	Y58	Z58	X59	Y59	Z59	X60	Y60	Z60	X61	Y61	Z61	

999	4.99	-291.4137573242188	1730.523681640625	-787.0791625976565	-432.6455383300782	1603.801147460938	-849.1260375976565	-456.2435302734376	1496.436767578125	-783.491149902344	-504.3096008300782	1177.129150390625	-770.7565917968752	-318.9766235351563	1430.250732421875	-783.0513305664065	-352.9517211914063	1488.59130859375	-909.3041992187502	-198.4753875732422	1444.383178710938	-1007.934143066406	-172.6919708251953	1463.34619140625	-968.9711914062502	-128.2346343994141	1444.433837890625	-1004.687805175781	-46.36606597900391	1441.763916015625	-994.1038208007815	-54.30358123779298	1367.82421875	-953.296813964844	nan	nan	nan	192.8192138671876	1486.605712890625	-902.7951660156252	202.7162475585938	1508.57177734375	-795.9099731445315	-350.9980468750001	1475.077392578125	-650.4780883789064	-202.2888793945313	1442.421142578125	-547.3519287109376	-174.3294830322266	1457.442016601563	-585.4613647460939	-131.3860931396485	1441.131591796875	-544.7241821289064	-61.41955947875978	1443.521484375	-554.2568359375001	-45.92109298706055	1369.237670898438	-571.1731567382814	138.1788635253907	1490.046752929688	-740.4677734375001	161.8454132080078	1505.684936523438	-668.8801879882814	211.3726196289063	1532.01904296875	-771.8789062500002	-345.7180480957032	993.0501098632815	-666.7154541015626	-509.6509399414064	1062.447387695313	-780.633972167969	-517.8386840820314	1033.683349609375	-810.4031982421877	-511.3218688964845	1028.39111328125	-754.4225463867189	-274.5643310546876	859.0628662109377	-1021.826843261719	-193.9719238281251	834.2373046875002	-1027.610717773438	-167.933578491211	867.9243164062502	-1001.830322265625	-169.783187866211	779.137145996094	-1030.08544921875	-102.828598022461	695.3578491210939	-1028.927368164063	-57.26470947265626	700.9317626953126	-908.0485839843752	7.61093044281006	615.2151489257814	-1004.355041503906	-32.60658264160157	554.2841186523439	-1051.576049804688	8.381437301635744	565.6397705078126	-1034.27783203125	39.56109619140626	491.170379638672	-1006.030700683594	29.95661354064942	328.8421630859376	-1026.094970703125	53.43765258789064	356.5835266113282	-944.798767089844	-14.66319465637207	288.5506286621094	-980.1267700195315	191.3213348388672	317.2245788574219	-947.3969726562502	197.3633117675782	314.7129821777344	-996.5278320312502	165.5021209716797	278.8804321289063	-1042.177490234375	-390.3572082519532	779.5506591796877	-626.1989135742189	-347.4547119140626	730.1567993164064	-632.4140014648439	-316.4548645019532	739.4185180664064	-642.4176635742189	-368.7896728515626	648.5394897460939	-650.4241333007814	-374.9570007324219	498.5344848632814	-695.8032836914064	-334.4847412109376	505.277801513672	-817.8209228515627	-314.3410949707032	360.6160583496094	-771.4309692382815	-363.4255676269532	276.3185729980469	-723.7069702148439	-324.1777038574219	275.9502258300782	-753.0257568359376	-331.5039367675782	234.5316619873047	-794.2369384765627	-396.0859985351564	109.0268096923828	-772.9788208007815	-364.4977111816407	138.6462860107422	-850.0928344726565	-446.4050292968751	92.83472442626955	-836.013854980469	-242.3541564941407	55.41271972656251	-824.6006469726565	-246.5771179199219	55.47645187377931	-782.2927246093752	-289.5489807128907	34.98303985595704	-735.1458129882814	-357.7887268066407	1026.834594726563	-915.6260375976565	-392.3283996582032	1645.419677734375	-697.1712036132814	
1000	4.995	-291.2149047851563	1730.603759765625	-787.1257934570315	-432.3357849121095	1603.875366210938	-849.0516357421877	-456.2247314453126	1496.468017578125	-783.4958496093752	-504.048797607422	1177.164306640625	-770.8342285156252	-319.1376342773438	1430.265502929688	-783.1630859375002	-352.9675598144532	1488.535400390625	-909.4052734375002	-198.6255493164063	1444.175170898438	-1008.204284667969	-172.6503295898438	1463.056396484375	-969.1362304687502	-128.3744201660157	1444.216186523438	-1004.891540527344	-46.48828506469727	1441.429809570313	-994.427185058594	-53.96909713745119	1367.401733398438	-953.3439941406252	nan	nan	nan	192.8005371093751	1486.18115234375	-903.0140380859377	202.7715606689454	1507.975830078125	-795.8626098632815	-350.9689941406251	1475.173095703125	-650.5215454101564	-202.2400665283204	1442.201293945313	-547.4177856445314	-174.1856994628907	1457.161499023438	-585.5064086914064	-131.3500213623047	1440.739624023438	-544.8170166015626	-61.42067337036134	1442.8798828125	-554.2227172851564	-45.92852783203126	1368.7685546875	-571.2326660156251	138.034652709961	1489.426879882813	-740.5137939453126	161.8092041015625	1505.09375	-668.9964599609376	211.2000427246094	1531.40625	-772.0141601562502	-345.4095153808594	993.091491699219	-666.7814331054689	-509.2995910644532	1062.54443359375	-780.6540527343752	-517.5238037109376	1033.763061523438	-810.4478149414065	-511.136688232422	1028.374877929688	-754.4420166015626	-274.5758361816407	858.647888183594	-1021.940856933594	-193.8853759765626	833.4600219726565	-1027.77197265625	-167.8291473388672	867.011901855469	-1001.910400390625	-170.0125274658203	778.2211914062502	-1030.319946289063	-102.9335708618164	694.3106079101564	-1029.150268554688	-57.70423507690431	699.8677978515626	-908.2987060546877	7.05457639694214	614.1019287109376	-1004.838623046875	-33.36548614501954	553.2731323242189	-1051.909057617188	8.086781501770021	564.4504394531251	-1034.357666015625	39.0256576538086	489.8756103515626	-1006.305236816406	28.71240615844727	327.7299499511719	-1026.67626953125	52.57691192626955	355.2744445800782	-945.3291625976565	-15.26153945922852	287.1029968261719	-980.7697753906252	190.2679595947266	315.8177490234376	-947.821472167969	196.4323272705079	313.3964538574219	-997.0738525390627	164.7127685546875	278.2761230468751	-1043.61279296875	-390.157684326172	779.5760498046877	-626.1975708007814	-347.2994995117188	730.1824340820314	-632.4331054687501	-316.2996826171876	739.4114379882814	-642.3511962890626	-368.6804504394532	648.5631713867189	-650.3802490234376	-374.9574279785157	498.5709228515626	-695.7971801757814	-334.4147949218751	505.2951660156251	-817.7852172851565	-314.3645629882813	360.5803833007813	-771.4717407226565	-363.4393005371094	276.3502807617188	-723.6888427734376	-325.1430053710938	276.0990600585938	-753.7023925781251	-331.5426635742188	234.5471954345704	-794.2768554687502	-396.0990600585939	109.0078964233399	-773.0085449218752	-364.5777587890626	138.6589813232422	-850.1409301757815	-446.3086547851564	92.79359436035158	-836.039978027344	-242.3452453613282	55.46644592285158	-824.601257324219	-246.691879272461	55.38435745239259	-782.6938476562502	-289.6056518554688	35.06357574462891	-735.0650024414064	-357.5024719238282	1026.737915039063	-915.7105712890627	-392.1018676757814	1645.600463867188	-697.4052734375001	
1001	5	-291.0648498535157	1730.62060546875	-787.270690917969	-432.1928100585939	1603.711669921875	-849.0740966796877	-456.1977539062501	1496.483276367188	-783.5501708984377	-503.8091125488282	1177.168090820313	-770.880554199219	-319.2546386718751	1430.335693359375	-783.2757568359377	-353.0659484863282	1488.468383789063	-909.4372558593752	-198.8498992919922	1443.88671875	-1008.397399902344	-172.6740112304688	1462.8427734375	-969.3375244140627	-128.4792175292969	1443.960693359375	-1005.157653808594	-46.54794311523438	1441.01416015625	-994.7027587890627	-54.22238540649415	1367.026000976563	-953.6809082031252	nan	nan	nan	192.7368774414063	1485.624755859375	-903.089050292969	202.6469268798829	1507.3662109375	-795.826843261719	-351.0113220214844	1475.230346679688	-650.6375732421876	-202.2028350830079	1441.934204101563	-547.4704589843751	-174.1266326904297	1456.835815429688	-585.5615234375001	-131.3054351806641	1440.30712890625	-544.9793701171876	-61.38255310058595	1442.202270507813	-554.1282958984376	-46.04340744018555	1368.098388671875	-571.2286987304689	137.8645782470703	1488.707397460938	-740.5973510742189	161.7379455566407	1504.563232421875	-669.0035400390626	211.0520172119141	1530.845703125	-772.1016235351565	-345.1512451171876	993.085144042969	-666.8915405273439	-508.8763732910157	1062.5751953125	-780.7124633789065	-517.2530517578126	1033.6923828125	-810.5113525390627	-510.9150390625001	1028.404052734375	-754.4487915039064	-274.4015502929688	858.1107177734377	-1021.987670898438	-193.7055358886719	832.4636840820315	-1027.680541992188	-167.8347473144532	866.1177978515627	-1002.029846191406	-170.3132019042969	777.3491821289065	-1030.496948242188	-103.4624557495117	693.2596435546876	-1029.312377929688	-58.13415908813478	698.5728759765626	-908.5197753906252	6.482539653778078	612.8261718750001	-1005.01904296875	-34.1494255065918	552.0817871093751	-1052.185302734375	6.808224201202394	563.3135375976564	-1034.91357421875	38.04449844360352	488.5663452148439	-1006.982788085938	27.7506217956543	326.5626220703126	-1027.188720703125	51.48881149291994	353.8301391601563	-946.1460571289065	-16.63598823547364	285.9155883789063	-981.554870605469	189.301986694336	314.5672302246094	-948.4425048828127	195.2191314697266	311.9881591796876	-997.862731933594	163.4970703125	277.0510559082032	-1044.448486328125	-389.9852294921876	779.6277465820315	-626.1858520507814	-347.1999511718751	730.2193603515626	-632.4451293945314	-316.1589355468751	739.3701171875001	-642.3858642578126	-368.5825195312501	648.6511230468751	-650.3894653320314	-375.0039672851563	498.5798645019532	-695.7907104492189	-334.2687988281251	505.2550659179689	-817.7874145507815	-314.3988342285157	360.6282653808594	-771.4575195312502	-363.4950256347657	276.3121643066407	-723.6958007812501	-325.1982116699219	276.1358947753907	-753.6536865234376	-331.3194885253907	234.4637756347657	-794.1311035156252	-396.0559387207032	108.9957427978516	-772.9334716796877	-364.3282165527344	138.5805053710938	-850.0264892578127	-446.3399963378907	92.82106781005861	-836.029968261719	-242.4369354248047	55.43380355834962	-824.6411743164065	-246.8165588378907	55.40919113159181	-782.7144775390627	-289.5904846191407	34.98386764526368	-735.1009521484376	-357.2806091308594	1026.772705078125	-915.7127685546877	-391.944061279297	1645.744750976563	-697.3053588867189	
1002	5.005	-289.8220214843751	1730.534790039063	-786.5836181640627	-432.2816162109376	1603.911987304688	-849.2210693359377	-456.1964111328126	1496.495361328125	-783.570007324219	-503.5962829589845	1177.18896484375	-770.8417968750002	-319.1741333007813	1430.4462890625	-783.3347167968752	-353.1399841308594	1488.441650390625	-909.537292480469	-198.9732055664063	1443.633422851563	-1008.574340820313	-172.7812194824219	1462.504760742188	-969.5538330078127	-128.7386932373047	1443.718383789063	-1005.496154785156	-46.59438705444337	1440.548828125	-995.0605468750002	-54.43862915039064	1366.644775390625	-954.014343261719	nan	nan	nan	192.5881347656251	1485.034301757813	-903.282409667969	200.8800506591797	1507.287841796875	-797.1839599609377	-351.0346984863282	1475.291015625	-650.7505493164064	-202.2033233642579	1441.673950195313	-547.4973754882814	-174.0622253417969	1456.4326171875	-585.6268310546876	-131.3485870361328	1439.786499023438	-545.0408935546876	-61.28929138183595	1441.556640625	-554.0245971679689	-46.07429504394532	1367.326538085938	-571.2409057617189	137.6709899902344	1488.09033203125	-740.7172241210939	161.7222290039063	1503.583984375	-669.1504516601564	211.1714172363282	1530.332641601563	-772.333679199219	-344.8502807617188	993.0972900390627	-666.9256591796876	-508.5339355468751	1062.59228515625	-780.7898559570315	-516.9171752929689	1033.717407226563	-810.5321044921877	-510.6651306152345	1028.442138671875	-754.4929199218751	-274.3630065917969	857.5416259765627	-1022.0478515625	-193.7171783447266	831.648132324219	-1027.765747070313	-167.7715301513672	865.332946777344	-1002.226135253906	-170.4729461669922	776.5747070312502	-1030.386840820313	-104.0858612060547	692.3458251953126	-1029.678344726563	-58.59072494506837	697.2778320312501	-908.8824462890627	5.981848239898683	611.5161743164064	-1005.204040527344	-34.93114852905274	550.8607788085939	-1052.613647460938	6.060176849365236	561.9868774414064	-1035.525756835938	36.97785949707032	487.321014404297	-1007.538452148438	25.57050704956055	325.3879699707032	-1027.994262695313	50.47574615478517	352.4852905273438	-946.652038574219	-17.72508430480957	284.6343383789063	-982.117126464844	188.3032989501953	312.9053649902344	-949.3802490234377	194.263168334961	310.6829223632813	-998.5742187500002	162.174301147461	275.0718383789063	-1044.663330078125	-389.8389587402345	779.7208251953127	-626.1780395507814	-347.1329650878907	730.2100219726564	-632.3475341796876	-316.0650329589844	739.3777465820314	-642.3128662109376	-368.5078125000001	648.6707153320314	-650.3884277343751	-375.0707092285157	498.623016357422	-695.8364257812501	-334.3511352539063	505.197235107422	-817.7993164062502	-314.4499206542969	360.6138610839844	-771.3609008789065	-363.5589599609376	276.3491821289063	-723.6894531250001	-324.3465576171876	276.0126953125001	-752.9476318359376	-331.2232055664063	234.3482666015626	-793.7722167968752	-396.084197998047	109.028549194336	-772.9727172851565	-365.3255310058594	138.8807983398438	-850.2827148437502	-446.3489990234376	92.82843017578126	-836.0515136718752	-242.3822326660157	55.43917083740236	-824.6004638671877	-246.9032592773438	55.35283279418947	-782.8583984375002	-289.5600585937501	34.96069335937501	-735.1279907226564	-356.8651733398438	1026.70556640625	-915.7573852539065	-391.4449462890626	1646.752197265625	-697.2163696289064	
